<?xml version="1.0" encoding="UTF-8"?>
<svg xmlns="http://www.w3.org/2000/svg" viewBox="0 0 641 361">
  <defs>
    <style>
      .cls-1 {
        font-family: IvySoftVariable-Black, 'IvySoft Variable';
        font-size: 48.68px;
        font-variation-settings: 'wght' 900, 'slnt' 0;
        font-weight: 800;
      }

      .cls-1, .cls-2 {
        fill: #7c989e;
      }

      .cls-3 {
        fill: #65beb6;
        stroke: #22403d;
        stroke-miterlimit: 10;
        stroke-width: 5px;
      }

      .cls-4 {
        fill: #fedcb7;
      }

      .cls-5 {
        fill: #2a3435;
      }

      .cls-6 {
        fill: #4d3b29;
      }

      .cls-7 {
        fill: rgba(105, 204, 231, 0);
      }

      .cls-8 {
        letter-spacing: -.02em;
      }

      .cls-9 {
        letter-spacing: 0em;
      }
    </style>
  </defs>
  <g id="socket_copy" data-name="socket copy">
    <g>
      <g>
        <path class="cls-2" d="M336.9,242.43c-3.69,0-6.69-.94-8.93-2.79-2.38-1.95-3.6-4.87-3.6-8.67v-7.97c-1.16-.2-2.12-.61-2.88-1.23-1.28-1.04-1.96-2.44-1.96-4.04,0-1.79.81-2.91,1.48-3.53.65-.59,1.52-1.14,2.61-1.65.56-.28,1.12-.6,1.65-.97.36-.26.75-.65,1.13-1.16.32-.44.55-.96.68-1.59.39-1.77,1.23-3.08,2.5-3.91,1.12-.72,2.52-1.08,4.17-1.08h.24c1.69,0,3.13.4,4.29,1.2,1.41.94,2.2,2.51,2.2,4.42v2.07h.76c2.25,0,3.91.48,5.08,1.48,1.24,1.06,1.9,2.56,1.9,4.33,0,1.36-.5,5.81-6.98,5.81h-.76v7.58c0,.05,0,.09,0,.13.08.02.22.05.45.05.47-.03.93-.05,1.39-.05.37-.03.83-.05,1.34-.05.84,0,1.66.16,2.43.48.98.42,1.72,1.05,2.24,1.88.66,1.07.87,2.26.62,3.46-.23,1.11-.86,2.11-1.85,2.96-1.03.92-2.55,1.66-4.47,2.16-1.73.46-3.66.69-5.74.69Z"/>
        <path class="cls-5" d="M334,206.34c1.17,0,2.13.25,2.87.76.75.5,1.12,1.29,1.12,2.36v4.57h3.26c1.61,0,2.76.29,3.45.88.68.58,1.03,1.39,1.03,2.43,0,2.21-1.49,3.31-4.48,3.31h-3.26v10.08c0,.88.26,1.54.78,1.99.53.46,1.27.69,2.24.69.49-.03.97-.05,1.45-.05.28-.03.69-.05,1.21-.05s1.02.1,1.48.29c.47.2.82.49,1.06.88.32.52.42,1.06.3,1.63-.12.57-.46,1.09-1.03,1.58-.76.68-1.92,1.23-3.47,1.63-1.55.41-3.26.61-5.11.61-3.1,0-5.55-.74-7.34-2.22-1.8-1.47-2.69-3.72-2.69-6.74v-10.32h-.61c-1.45,0-2.52-.27-3.2-.82-.69-.56-1.03-1.25-1.03-2.1,0-.71.22-1.27.67-1.68.44-.4,1.1-.82,1.99-1.24.73-.36,1.39-.75,2-1.17.6-.42,1.17-.99,1.72-1.73.54-.73.91-1.58,1.12-2.55.24-1.1.71-1.88,1.42-2.34.7-.45,1.64-.68,2.81-.68h.24M334,201.34h-.24c-2.14,0-3.99.5-5.51,1.47-1.29.83-2.94,2.45-3.6,5.48-.06.29-.14.49-.25.64-.29.39-.49.56-.57.61-.39.27-.83.53-1.31.77-1.31.62-2.35,1.29-3.17,2.04-1.49,1.36-2.31,3.27-2.31,5.38,0,2.35,1.02,4.48,2.88,5.98.58.47,1.24.86,1.96,1.16v6.1c0,5.72,2.46,8.93,4.53,10.61,2.68,2.21,6.22,3.35,10.5,3.35,2.29,0,4.44-.26,6.39-.78,2.3-.59,4.11-1.48,5.49-2.7,1.4-1.21,2.28-2.66,2.63-4.31.39-1.83.06-3.66-.93-5.28-.78-1.27-1.94-2.26-3.36-2.86-.02,0-.03-.01-.05-.02-1.07-.44-2.21-.67-3.39-.67-.24,0-.46,0-.68,0v-2.77c5.67-.68,7.74-4.71,7.74-8.21,0-2.49-.99-4.7-2.79-6.23-1.29-1.1-2.92-1.76-4.96-1.98-.09-2.6-1.26-4.78-3.31-6.16-1.58-1.08-3.49-1.62-5.68-1.62h0Z"/>
      </g>
      <g>
        <path class="cls-2" d="M207.66,242.43c-3.66,0-6.93-.61-9.74-1.81-2.96-1.27-5.26-3.12-6.84-5.52-1.6-2.39-2.41-5.19-2.41-8.31s.81-5.91,2.42-8.33c1.58-2.39,3.88-4.25,6.84-5.51,2.81-1.2,6.09-1.81,9.74-1.81s6.95.61,9.75,1.81c2.94,1.26,5.24,3.11,6.84,5.51,1.6,2.41,2.42,5.21,2.42,8.33s-.81,5.92-2.42,8.32c-1.59,2.4-3.89,4.25-6.83,5.51-2.81,1.2-6.09,1.81-9.75,1.81ZM207.66,222.96c-.6,0-1.06.11-1.42.35-.33.22-.61.57-.81,1.05-.27.64-.41,1.46-.41,2.43,0,1.38.27,2.45.79,3.09.28.34.75.73,1.85.73.59,0,1.06-.11,1.41-.34.23-.15.56-.42.84-1.07.26-.61.4-1.43.4-2.41,0-1.41-.27-2.45-.79-3.09-.3-.36-.76-.74-1.85-.74Z"/>
        <path class="cls-5" d="M207.66,213.64c3.35,0,6.27.54,8.77,1.61s4.41,2.6,5.74,4.6c1.33,2,2,4.31,2,6.94s-.67,4.94-2,6.93c-1.33,2-3.24,3.53-5.74,4.6s-5.42,1.61-8.77,1.61-6.26-.54-8.76-1.61-4.42-2.6-5.74-4.6c-1.33-1.99-2-4.3-2-6.93s.67-4.94,2-6.94c1.32-2,3.24-3.53,5.74-4.6s5.42-1.61,8.76-1.61M207.66,233.11c1.09,0,2.02-.25,2.78-.75.77-.5,1.35-1.22,1.76-2.17.4-.94.6-2.07.6-3.4,0-2.02-.45-3.57-1.36-4.68-.91-1.1-2.17-1.65-3.78-1.65-1.09,0-2.01.25-2.78.75-.76.51-1.35,1.23-1.75,2.17-.4.94-.61,2.08-.61,3.41,0,2.01.46,3.57,1.36,4.67.91,1.1,2.17,1.65,3.78,1.65M207.66,208.64c-4,0-7.61.68-10.73,2.01-3.42,1.46-6.09,3.63-7.95,6.44-1.87,2.82-2.83,6.08-2.83,9.69s.96,6.89,2.84,9.71c1.84,2.79,4.51,4.96,7.93,6.42,3.12,1.34,6.73,2.01,10.73,2.01s7.62-.68,10.74-2.01c3.4-1.45,6.07-3.62,7.94-6.43,1.88-2.81,2.84-6.08,2.84-9.7s-.95-6.88-2.84-9.71c-1.87-2.81-4.54-4.97-7.94-6.43-3.12-1.34-6.73-2.01-10.74-2.01h0ZM207.65,228.06c-.06-.22-.14-.62-.14-1.27s.08-1.04.15-1.27c.06.22.13.62.13,1.27s-.08,1.05-.14,1.27h0Z"/>
      </g>
      <g>
        <path class="cls-2" d="M172.06,242.43c-3.14,0-6.13-.41-8.89-1.22-2.95-.86-5.15-1.96-6.72-3.34-1.19-1.08-1.89-2.18-2.18-3.41-.23-1.02-.24-2.55.97-4.2.88-1.19,2.15-1.93,3.7-2.16.34-.05.7-.08,1.05-.08.99,0,2.04.2,3.13.58,1.9.68,3.54,1.18,4.89,1.47,1.28.29,2.45.43,3.57.43s1.76-.13,2.09-.24c.16-.05.27-.1.35-.14-.27-.2-1.03-.65-2.98-1.19l-2.07-.58c-2.82-.81-5.11-1.65-6.99-2.57-2.09-1.03-3.8-2.41-5.09-4.12-1.38-1.84-2.08-4.08-2.08-6.67,0-3.03.91-5.65,2.69-7.79,1.7-2.03,3.99-3.57,6.8-4.57,2.65-.95,5.59-1.44,8.73-1.44,2.59,0,5.13.28,7.55.84,2.52.59,4.58,1.41,6.12,2.45,1.39.98,2.26,2.09,2.65,3.33.32,1.03.43,2.64-.87,4.44-.02.03-.05.06-.07.09-.88,1.11-2.13,1.82-3.63,2.06-.37.06-.78.1-1.21.1-.93,0-1.92-.16-3.02-.47-.94-.27-2-.49-3.14-.66-1.2-.18-2.3-.27-3.3-.27-1.35,0-2.11.17-2.51.31.39.23,1.19.6,2.79,1.06l2.06.59c4.5,1.27,7.84,2.77,10.21,4.6,2.69,2.1,4.11,5.16,4.11,8.85,0,3.01-.9,5.64-2.69,7.81-1.7,2.08-4.02,3.64-6.91,4.65-2.71.95-5.78,1.43-9.1,1.43Z"/>
        <path class="cls-5" d="M173.03,203.71c2.41,0,4.74.26,6.98.78,2.23.52,4,1.22,5.29,2.09.88.62,1.44,1.29,1.66,2,.22.71.05,1.46-.51,2.24-.49.62-1.17,1-2.06,1.14-.26.04-.53.07-.82.07-.69,0-1.47-.13-2.32-.38-1.01-.29-2.17-.54-3.48-.73-1.31-.2-2.53-.3-3.66-.3-1.65,0-2.93.22-3.83.66-.91.44-1.36,1.16-1.36,2.17,0,.78.35,1.42,1.05,1.92.71.5,1.95,1.02,3.72,1.53l2.06.59c4.15,1.17,7.27,2.56,9.37,4.18,2.09,1.63,3.14,3.92,3.14,6.87,0,2.43-.71,4.51-2.12,6.23-1.41,1.72-3.34,3.01-5.8,3.87-2.46.86-5.22,1.29-8.28,1.29-2.9,0-5.63-.37-8.19-1.12s-4.49-1.69-5.78-2.82c-.76-.69-1.22-1.38-1.39-2.1-.16-.71.02-1.42.55-2.14.48-.65,1.17-1.04,2.05-1.17.22-.03.45-.05.69-.05.7,0,1.47.15,2.28.44,2.01.72,3.74,1.24,5.19,1.56,1.46.33,2.82.49,4.11.49,1.17,0,2.13-.12,2.88-.37.74-.24,1.3-.58,1.66-1.02.36-.44.54-.93.54-1.49,0-.77-.38-1.45-1.15-2.01-.76-.57-2.03-1.1-3.8-1.59l-2.06-.58c-2.62-.75-4.81-1.55-6.56-2.41-1.75-.86-3.15-1.99-4.2-3.38-1.05-1.4-1.57-3.12-1.57-5.16,0-2.44.7-4.5,2.11-6.19,1.41-1.68,3.32-2.96,5.72-3.82,2.39-.86,5.02-1.29,7.89-1.29M173.03,198.71c-3.44,0-6.66.53-9.58,1.59-3.22,1.16-5.87,2.94-7.86,5.31-2.18,2.61-3.28,5.77-3.28,9.4,0,3.14.86,5.89,2.57,8.16.75,1,1.62,1.9,2.6,2.7-1.73.48-3.19,1.48-4.25,2.91-1.39,1.88-1.88,4.09-1.41,6.21,0,.02,0,.03.01.05.4,1.71,1.38,3.28,2.9,4.65.02.02.04.04.07.06,1.86,1.63,4.37,2.89,7.67,3.86,2.99.88,6.22,1.32,9.6,1.32,3.61,0,6.95-.53,9.93-1.57,3.32-1.16,6.02-2.99,8.02-5.42,2.16-2.63,3.25-5.8,3.25-9.4,0-4.49-1.75-8.23-5.07-10.81-.52-.4-1.07-.78-1.66-1.15,1.54-.5,2.85-1.4,3.84-2.66.05-.06.09-.12.14-.18,1.48-2.06,1.91-4.41,1.22-6.64-.55-1.78-1.75-3.33-3.56-4.61-.03-.02-.06-.04-.08-.06-1.82-1.23-4.09-2.15-6.95-2.81-2.6-.6-5.33-.91-8.12-.91h0Z"/>
      </g>
      <g>
        <path class="cls-2" d="M283.83,242.04c-1.97,0-3.58-.2-4.92-.62-1.59-.5-3.02-1.58-4.23-3.21l-1.77-2.32v.05c0,2.13-.93,3.86-2.62,4.89-1.35.81-3.03,1.21-5.02,1.21h-.85c-1.99,0-3.68-.41-5.01-1.21-1.7-1.02-2.63-2.76-2.63-4.89v-29.21c0-2.13.94-3.87,2.64-4.89,1.32-.8,3-1.21,5-1.21h.85c1.99,0,3.67.41,5.01,1.21,1.7,1.03,2.63,2.77,2.63,4.89v11.24l2.73-2.77c1.46-1.52,2.75-2.5,3.92-2.97,1.17-.47,2.54-.69,4.21-.69h.84c1.72,0,3.07.31,4.14.94,1.5.87,2.28,2.31,2.13,3.94-.12,1.26-.81,2.52-2.06,3.72l-5.57,5.31,6.28,7.38c1.24,1.46,1.87,2.9,1.87,4.3,0,1.68-.89,3.13-2.43,3.99-1.17.64-2.57.94-4.3.94h-.84Z"/>
        <path class="cls-5" d="M265.27,203.13c1.53,0,2.77.28,3.72.85.94.57,1.42,1.48,1.42,2.75v17.34l7.01-7.12c1.21-1.26,2.24-2.07,3.08-2.41.85-.34,1.94-.51,3.27-.51h.84c1.25,0,2.21.2,2.87.59.67.39.97.91.91,1.55-.06.65-.49,1.37-1.3,2.15l-7.27,6.93,7.81,9.18c.85,1,1.27,1.9,1.27,2.68s-.38,1.38-1.14,1.8c-.77.42-1.8.63-3.09.63h-.84c-1.7,0-3.09-.17-4.17-.51-1.09-.34-2.08-1.11-2.97-2.31l-6.28-8.21v7.43c0,1.26-.48,2.18-1.42,2.75-.95.57-2.19.85-3.72.85h-.85c-1.53,0-2.77-.28-3.71-.85-.95-.57-1.43-1.49-1.43-2.75v-29.21c0-1.27.48-2.18,1.43-2.75.94-.57,2.18-.85,3.71-.85h.85M265.27,198.13h-.85c-2.46,0-4.58.53-6.3,1.57-2.43,1.46-3.84,4.02-3.84,7.03v29.21c0,3,1.41,5.57,3.86,7.04,1.7,1.03,3.82,1.56,6.28,1.56h.85c2.45,0,4.56-.53,6.29-1.56.88-.53,1.62-1.2,2.21-1.97,1.29,1.35,2.77,2.29,4.4,2.8,1.57.49,3.43.74,5.66.74h.84c2.13,0,3.98-.42,5.48-1.24,2.35-1.3,3.75-3.61,3.75-6.19,0-2.01-.83-4-2.46-5.92l-4.75-5.58,3.85-3.67c1.71-1.65,2.66-3.43,2.83-5.31.24-2.59-1.02-4.96-3.37-6.33-1.44-.85-3.21-1.27-5.39-1.27h-.84c-1.99,0-3.67.28-5.13.87-1.06.43-2.11,1.1-3.23,2.06v-5.23c0-2.99-1.4-5.55-3.83-7.03-1.75-1.05-3.87-1.57-6.31-1.57h0Z"/>
      </g>
      <g>
        <path class="cls-2" d="M242.66,242.43c-3.22,0-6.21-.62-8.9-1.86-2.78-1.28-5.03-3.12-6.68-5.46-1.7-2.4-2.57-5.2-2.57-8.32s.86-5.93,2.57-8.33c1.65-2.35,3.93-4.19,6.75-5.46,2.76-1.23,5.83-1.85,9.13-1.85,2.19,0,4.36.32,6.47.96,2.17.67,3.9,1.51,5.31,2.57,1.26.96,2.09,2.04,2.49,3.21.51,1.49.27,3-.67,4.24-.82,1.1-2.02,1.81-3.44,2.01-.33.05-.67.07-1.02.07-.84,0-1.75-.14-2.7-.41-.76-.22-1.58-.41-2.43-.54-.77-.12-1.56-.18-2.32-.18-.92,0-1.74.14-2.42.42-.48.2-.86.52-1.16.99-.29.48-.45,1.2-.45,2.12,0,.85.17,1.53.5,2.02.36.54.81.91,1.41,1.16.71.3,1.59.45,2.6.45.81,0,2.3-.19,4.86-1.07.96-.36,1.95-.55,2.88-.55.32,0,.62.02.92.06,1.44.22,2.63.91,3.48,1.99.97,1.21,1.2,2.78.63,4.28-.41,1.07-1.15,2.07-2.27,3.07-1.55,1.34-3.54,2.41-5.94,3.23-2.36.8-4.73,1.2-7.03,1.2Z"/>
        <path class="cls-5" d="M242.96,213.64c1.98,0,3.89.29,5.75.85,1.85.57,3.36,1.29,4.53,2.17.85.65,1.39,1.32,1.63,2.02.24.7.14,1.34-.3,1.92-.44.59-1.05.94-1.81,1.05-.21.03-.43.05-.66.05-.61,0-1.27-.11-2-.32-.89-.26-1.8-.46-2.72-.61-.93-.14-1.84-.21-2.72-.21-1.25,0-2.37.2-3.36.6-.99.41-1.76,1.07-2.33,1.97-.56.91-.84,2.07-.84,3.46s.31,2.51.94,3.43c.62.93,1.46,1.61,2.5,2.05,1.05.44,2.24.65,3.57.65,1.45,0,3.34-.4,5.68-1.21.74-.27,1.43-.41,2.06-.41.2,0,.39.01.57.04.79.12,1.4.47,1.85,1.05.44.55.53,1.17.27,1.85-.26.68-.8,1.38-1.6,2.09-1.29,1.11-2.99,2.02-5.08,2.73-2.1.71-4.17,1.07-6.23,1.07-2.86,0-5.48-.54-7.86-1.63-2.37-1.09-4.27-2.63-5.68-4.63-1.41-1.99-2.11-4.29-2.11-6.88s.7-4.9,2.11-6.89c1.41-2,3.33-3.54,5.74-4.63,2.42-1.08,5.12-1.63,8.1-1.63M242.96,208.64c-3.66,0-7.07.69-10.14,2.06-3.26,1.47-5.87,3.59-7.79,6.31-2,2.83-3.02,6.12-3.02,9.77s1.02,6.93,3.03,9.77c1.9,2.7,4.49,4.82,7.67,6.28,3.03,1.39,6.37,2.09,9.95,2.09,2.58,0,5.21-.45,7.83-1.33,2.71-.92,4.97-2.16,6.74-3.68.02-.02.04-.03.06-.05,1.41-1.25,2.4-2.61,2.95-4.04.89-2.34.52-4.79-1.01-6.73-1.13-1.44-2.66-2.4-4.46-2.8,1.53-.49,2.85-1.42,3.81-2.71,1.42-1.87,1.8-4.26,1.02-6.53-.56-1.65-1.68-3.12-3.32-4.37-1.67-1.26-3.66-2.23-6.09-2.98-2.37-.71-4.79-1.07-7.22-1.07h0ZM243.22,225.77c.38-.14.86-.22,1.44-.22.62,0,1.28.05,1.95.15.74.12,1.44.28,2.09.47.46.13.92.24,1.36.32-.31.09-.61.18-.92.3-2.32.8-3.5.92-4,.92-.67,0-1.22-.09-1.64-.26-.17-.07-.22-.14-.27-.21-.01-.02-.02-.03-.03-.05,0-.02-.07-.22-.07-.6,0-.47.06-.72.09-.81h0Z"/>
      </g>
      <g>
        <path class="cls-2" d="M305.59,242.43c-3.33,0-6.4-.62-9.13-1.85-2.82-1.27-5.09-3.1-6.73-5.44-1.69-2.41-2.54-5.21-2.54-8.35s.84-5.96,2.51-8.35c1.61-2.34,3.93-4.19,6.89-5.46,2.84-1.22,6.09-1.84,9.66-1.84,3.37,0,6.31.49,8.75,1.44,2.55.99,4.54,2.37,5.89,4.09,1.42,1.82,2.14,3.78,2.14,5.83,0,1.93-.68,4.52-3.79,6.37,1.1.34,1.99.99,2.62,1.9.87,1.22,1.06,2.7.54,4.14-.41,1.1-1.15,2.11-2.28,3.09-1.65,1.41-3.7,2.5-6.11,3.28-2.35.76-5.17,1.14-8.4,1.14Z"/>
        <path class="cls-5" d="M306.25,213.64c3.06,0,5.67.42,7.83,1.27,2.16.84,3.77,1.95,4.84,3.31,1.06,1.36,1.6,2.79,1.6,4.28,0,2.01-1.08,3.54-3.24,4.58-2.15,1.04-5.26,1.56-9.33,1.56h-6.7c.32,1.02.86,1.83,1.59,2.43,1.35,1.1,3.19,1.65,5.53,1.65,1.33,0,2.56-.11,3.69-.34,1.12-.22,2.21-.51,3.26-.87.74-.27,1.43-.41,2.07-.41.2,0,.4.01.59.04.81.12,1.41.47,1.81,1.05.41.58.49,1.21.25,1.87-.25.67-.77,1.36-1.58,2.07-1.37,1.17-3.11,2.1-5.23,2.78-2.11.68-4.66,1.02-7.64,1.02s-5.68-.54-8.1-1.63c-2.42-1.09-4.32-2.62-5.71-4.6-1.39-1.98-2.09-4.28-2.09-6.91s.68-4.94,2.06-6.92c1.36-1.98,3.31-3.51,5.83-4.6,2.52-1.08,5.41-1.63,8.67-1.63M300.97,223.77h4.8c1.57,0,2.73-.14,3.48-.42.74-.27,1.11-.73,1.11-1.38,0-.72-.37-1.31-1.11-1.78-.75-.47-1.77-.71-3.06-.71-1.17,0-2.15.25-2.96.73-.81.49-1.41,1.19-1.81,2.1-.2.44-.35.93-.45,1.46M306.25,208.64c-3.91,0-7.49.68-10.64,2.03-3.41,1.48-6.09,3.62-7.98,6.36-1.94,2.79-2.94,6.08-2.94,9.75s1.01,6.95,3,9.78c1.9,2.71,4.51,4.83,7.75,6.29,3.05,1.37,6.47,2.07,10.15,2.07,3.49,0,6.58-.42,9.17-1.26,2.73-.87,5.06-2.13,6.94-3.74.02-.01.03-.03.05-.04,1.43-1.25,2.42-2.62,2.97-4.08.81-2.23.5-4.58-.84-6.48-.17-.24-.35-.47-.54-.69,1.42-1.7,2.17-3.79,2.17-6.14,0-2.62-.89-5.09-2.66-7.35-1.65-2.1-3.99-3.74-6.97-4.9-2.71-1.07-5.96-1.61-9.64-1.61h0Z"/>
      </g>
    </g>
  </g>
  <g id="socket_copy_2" data-name="socket copy 2">
    <text class="cls-1" transform="translate(155.19 239.54) scale(1.24 1)"><tspan x="0" y="0">Soc</tspan><tspan class="cls-8" x="81.58" y="0">k</tspan><tspan class="cls-9" x="107.19" y="0">e</tspan><tspan x="134.01" y="0">t</tspan></text>
  </g>
  <g id="hr_copy" data-name="hr copy">
    <g>
      <g>
        <path class="cls-4" d="M389,247.38c-1.38,0-2.5-1.12-2.5-2.5v-4.63c0-.57.19-1.12.55-1.57l2.58-3.21c.44-.53.75-1.02.93-1.44.12-.29.29-.84.41-1.84.07-.67.16-1.94.16-4.08v-38.68h-9.95v38.68c0,3.32.2,4.62.32,5.1.19.74.59,1.51,1.19,2.28l2.56,3.19c.36.44.55,1,.55,1.57v4.63c0,1.38-1.12,2.5-2.5,2.5h-30.7c-1.38,0-2.5-1.12-2.5-2.5v-4.63c0-.58.2-1.15.58-1.6l2.67-3.21c.55-.66.81-1.13.94-1.4.08-.17.23-.62.31-1.59.06-.67.13-1.96.13-4.33v-93.06c0-3.29-.21-4.69-.34-5.24-.17-.72-.53-1.39-1.1-2.03l-2.6-3.05c-.38-.45-.6-1.03-.6-1.62v-4.63c0-1.38,1.12-2.5,2.5-2.5h30.7c1.38,0,2.5,1.12,2.5,2.5v4.63c0,.59-.21,1.17-.6,1.62l-2.58,3.03c-.42.5-.71.96-.87,1.36-.14.34-.31.91-.42,1.84-.11.93-.17,2.3-.17,4.1v38.15h9.95v-38.15c0-3.28-.21-4.69-.34-5.24-.17-.72-.53-1.39-1.1-2.03l-2.6-3.06c-.39-.45-.6-1.03-.6-1.62v-4.63c0-1.38,1.12-2.5,2.5-2.5h30.69c1.38,0,2.5,1.12,2.5,2.5v4.63c0,.59-.21,1.17-.6,1.62l-2.58,3.03c-.58.67-.94,1.34-1.11,2.06-.16.65-.34,2.07-.34,5.24v93.06c0,3.48.18,4.85.29,5.36.14.65.49,1.28,1.04,1.91l2.71,3.26c.37.45.58,1.01.58,1.6v4.63c0,1.38-1.12,2.5-2.5,2.5h-30.69Z"/>
        <path class="cls-6" d="M419.69,118.48v4.63l-2.58,3.03c-.83.95-1.38,1.99-1.64,3.12-.27,1.13-.4,3.06-.4,5.8v93.06c0,2.86.12,4.82.35,5.89.24,1.07.77,2.08,1.6,3.03l2.67,3.21v4.63h-30.69v-4.63l2.58-3.21c.59-.71,1.02-1.4,1.29-2.05.27-.65.46-1.49.58-2.5.11-1.01.18-2.46.18-4.37v-41.18h-14.95v41.18c0,2.74.13,4.64.4,5.71.27,1.07.81,2.14,1.65,3.21l2.58,3.21v4.63h-30.7v-4.63l2.67-3.21c.59-.71,1.02-1.37,1.29-1.96.27-.6.44-1.4.53-2.41.09-1.01.14-2.52.14-4.55v-93.06c0-2.74-.14-4.67-.4-5.8-.27-1.13-.82-2.17-1.65-3.12l-2.58-3.03v-4.63h30.7v4.63l-2.58,3.03c-.6.72-1.03,1.4-1.29,2.05-.27.66-.47,1.49-.58,2.5-.12,1.01-.18,2.47-.18,4.37v40.65h14.95v-40.65c0-2.74-.14-4.67-.4-5.8-.27-1.13-.82-2.17-1.65-3.12l-2.58-3.03v-4.63h30.69M419.69,113.48h-30.69c-1.06,0-2.04.33-2.85.89-.81-.56-1.79-.89-2.85-.89h-30.7c-2.76,0-5,2.24-5,5v4.63c0,1.19.42,2.34,1.19,3.24l2.58,3.03s.03.03.04.05c.39.44.5.78.55.99.05.24.26,1.4.26,4.64v93.06c0,2.28-.07,3.49-.12,4.11-.05.51-.1.75-.13.83-.05.09-.2.36-.56.78l-2.67,3.21c-.75.9-1.16,2.03-1.16,3.2v4.63c0,2.76,2.24,5,5,5h30.7c1.06,0,2.04-.33,2.85-.89.81.56,1.79.89,2.85.89h30.69c2.76,0,5-2.24,5-5v-4.63c0-1.17-.41-2.3-1.16-3.2l-2.67-3.21s-.05-.06-.08-.09c-.27-.31-.43-.59-.49-.83-.03-.14-.23-1.25-.23-4.8v-93.06c0-3.28.2-4.38.26-4.64.08-.35.26-.66.54-.99.01-.02.03-.03.04-.05l2.58-3.03c.77-.9,1.19-2.05,1.19-3.24v-4.63c0-2.76-2.24-5-5-5h0ZM384.55,129.36l1.6-1.88,1.62,1.9s.03.03.04.05c.39.45.5.78.55.99.05.24.26,1.4.26,4.64v35.65h-4.95v-35.65c0-2.12.08-3.22.15-3.78.08-.77.21-1.11.24-1.2.02-.04.11-.27.49-.72h0ZM383.68,191.94h4.95v36.18c0,2.02-.08,3.2-.15,3.83-.1.8-.22,1.11-.23,1.12-.02.05-.14.32-.52.77-.02.02-.03.04-.05.06l-1.53,1.9-1.51-1.88c-.38-.48-.62-.93-.72-1.33-.04-.16-.25-1.15-.25-4.49v-36.18h0Z"/>
      </g>
      <g>
        <path class="cls-4" d="M464.8,247.38c-1.24,0-2.29-.9-2.47-2.12l-5.87-38.51c-.5-3.26-1.01-5.91-1.51-7.87-.54-2.13-1.08-3.28-1.44-3.87-.21-.33-.42-.59-.61-.73v34.38c0,1.25.03,2.41.09,3.43.04.81.16,1.52.35,2.07.16.46.44.91.86,1.37l2.7,3.07c.4.46.62,1.04.62,1.65v4.63c0,1.38-1.12,2.5-2.5,2.5h-30.69c-1.38,0-2.5-1.12-2.5-2.5v-4.63c0-.58.2-1.15.58-1.6l2.67-3.21c.55-.66.81-1.13.94-1.4.08-.17.23-.62.31-1.59.06-.67.13-1.96.13-4.33v-93.06c0-3.29-.21-4.69-.34-5.24-.17-.72-.53-1.39-1.1-2.03l-2.6-3.05c-.38-.45-.6-1.03-.6-1.62v-4.63c0-1.38,1.12-2.5,2.5-2.5h34.16c9.3,0,16.36,2.96,20.96,8.79,4.52,5.74,6.72,14.47,6.72,26.69,0,8.84-1.14,16.06-3.39,21.46-2.34,5.58-5.71,9.83-10.02,12.63-.64.42-1.31.82-1.99,1.21l.88.46c3.43,1.78,6.2,4.68,8.25,8.64,1.94,3.76,3.4,8.82,4.47,15.46l2.23,13.73c.51,3.21.99,5.65,1.41,7.25.36,1.34.9,2.49,1.59,3.42l2.24,3.05c.31.43.48.95.48,1.48v4.63c0,1.38-1.12,2.5-2.5,2.5h-25ZM452.89,178.72l.35-.09c1.48-.37,2.57-.98,3.34-1.88.47-.55,1.36-2.08,2.06-6.28.59-3.52.9-8.9.9-15.99s-.33-12.85-.98-16.5c-.82-4.57-1.76-5.81-2.02-6.08-.65-.64-1.48-.95-2.58-.95h-1.06v47.77Z"/>
        <path class="cls-6" d="M458.48,118.48c8.54,0,14.87,2.61,19,7.84,4.12,5.23,6.18,13.61,6.18,25.14,0,8.56-1.07,15.39-3.2,20.5-2.14,5.11-5.16,8.95-9.08,11.5-1.84,1.2-3.92,2.28-6.25,3.22l5.36,2.76c2.97,1.54,5.36,4.07,7.17,7.57,1.81,3.51,3.21,8.41,4.22,14.71l2.23,13.73c.53,3.33,1.02,5.83,1.46,7.49.45,1.66,1.12,3.09,2.01,4.28l2.22,3.03v4.63h-25l-5.87-38.51c-.53-3.44-1.06-6.15-1.56-8.11-.5-1.96-1.08-3.48-1.73-4.55-.66-1.07-1.43-1.72-2.32-1.96l-2.93-.71v37.62c0,1.31.03,2.5.09,3.57.05,1.06.22,1.99.49,2.76.26.77.72,1.51,1.38,2.23l2.66,3.03v4.63h-30.69v-4.63l2.67-3.21c.59-.71,1.02-1.37,1.29-1.96.27-.6.44-1.4.53-2.41.09-1.01.14-2.52.14-4.55v-93.06c0-2.74-.14-4.67-.4-5.8-.27-1.13-.82-2.17-1.65-3.12l-2.58-3.03v-4.63h34.16M450.39,181.95l3.47-.89c1.95-.48,3.5-1.37,4.62-2.68,1.13-1.31,2.01-3.8,2.63-7.49.62-3.68.93-9.15.93-16.4s-.34-13.13-1.02-16.94c-.68-3.8-1.59-6.27-2.71-7.4-1.13-1.12-2.58-1.69-4.36-1.69h-3.56v53.49M458.48,113.48h-34.16c-2.76,0-5,2.24-5,5v4.63c0,1.19.42,2.34,1.19,3.24l2.58,3.03s.03.03.04.05c.39.45.5.78.55.99.05.24.26,1.4.26,4.64v93.06c0,2.28-.07,3.49-.12,4.11-.05.51-.1.75-.13.83-.05.09-.2.36-.56.78l-2.67,3.21c-.75.9-1.16,2.03-1.16,3.2v4.63c0,2.76,2.24,5,5,5h30.69c2.41,0,4.42-1.71,4.9-3.98.48,2.3,2.52,3.98,4.89,3.98h25c2.76,0,5-2.24,5-5v-4.63c0-1.06-.34-2.1-.97-2.96l-2.22-3.03c-.53-.71-.93-1.59-1.22-2.63-.27-1.02-.73-3.07-1.35-6.97l-2.23-13.75c-1.11-6.89-2.65-12.2-4.71-16.2-1.74-3.36-3.95-6.05-6.62-8.03,4.08-3.05,7.3-7.35,9.59-12.8,2.42-5.79,3.59-13.13,3.59-22.43,0-12.8-2.37-22.04-7.25-28.23-5.11-6.47-12.82-9.75-22.93-9.75h0ZM455.39,173.51v-38.18c.22.73.46,1.73.71,3.09.62,3.5.94,8.9.94,16.06s-.29,12.18-.86,15.57c-.26,1.57-.54,2.68-.79,3.45h0ZM458.48,236.63l-2.38-2.71s-.05-.05-.07-.08c-.27-.3-.33-.45-.33-.45,0,0-.02-.05-.02-.06-.05-.15-.18-.58-.21-1.34-.06-1.02-.08-2.12-.08-3.33v-12.33l3.09,20.3h0Z"/>
      </g>
    </g>
  </g>
  <g id="Layer_2_copy_2" data-name="Layer 2 copy 2">
    <path class="cls-7" d="M366.5,117.46v93.42h-146.83l38.51-24.5c3.34.91,5.71,2.93,8.74,6.62,9.06,10.99,22.21,17.77,36.61,17.77h15.54c5.07,0,8.6-3.42,8.6-8.43v-9.16h26.76c5.46,0,9.96-4.5,9.96-9.85s-4.5-9.85-9.96-9.85h-26.76v-18.51h26.76c5.46,0,9.96-4.44,9.96-9.79s-4.5-9.85-9.96-9.85h-16.02l28.09-17.87Z"/>
    <g id="Layer_5_copy" data-name="Layer 5 copy">
      <path class="cls-3" d="M363.59,181.99c0,5.35-4.5,9.85-9.96,9.85h-26.76v9.16c0,5.01-3.53,8.43-8.6,8.43h-15.54c-14.4,0-27.55-6.78-36.61-17.77-3.03-3.69-5.4-5.71-8.74-6.62-1.55-.43-3.3-.61-5.43-.61h-10.24s-75.71.01-75.71.01v-.06c-9.62,0-14.8-5.07-14.8-14.69v-13.95c0-9.62,5.18-14.63,14.8-14.63v.06h85.95c6.72,0,9.73-1.83,14.17-7.23,9.06-11.05,22.21-17.82,36.61-17.82h15.54c5.07,0,8.6,3.47,8.6,8.48v9.39h26.76c5.46,0,9.96,4.44,9.96,9.85s-4.5,9.79-9.96,9.79h-26.76v18.51h26.76c5.46,0,9.96,4.5,9.96,9.85Z"/>
    </g>
  </g>
</svg>